<svg xmlns="http://www.w3.org/2000/svg" viewBox="0 0 64 64">
  <defs>
    <linearGradient id="ocean" x1="0%" y1="0%" x2="100%" y2="100%">
      <stop offset="0%" stop-color="#1b263b"/>
      <stop offset="100%" stop-color="#0d1b2a"/>
    </linearGradient>
    <linearGradient id="land" x1="20%" y1="0%" x2="80%" y2="100%">
      <stop offset="0%" stop-color="#778da9"/>
      <stop offset="100%" stop-color="#415a77"/>
    </linearGradient>
  </defs>
  <circle cx="32" cy="32" r="30" fill="url(#ocean)" stroke="#415a77" stroke-width="2.5"/>
  <!-- 유럽 -->
  <path d="M29 15 L32 14 L34 16 L33 19 L35 21 L33 23 L31 22 L29 20 Z" fill="url(#land)"/>
  <!-- 아프리카 -->
  <path d="M29 24 L32 23 L34 26 L33 30 L35 34 L33 38 L30 42 L27 40 L26 36 L27 32 L26 28 L28 25 Z" fill="url(#land)"/>
  <!-- 아시아 -->
  <path d="M35 12 L40 11 L45 13 L50 12 L52 16 L50 19 L48 22 L44 24 L40 22 L37 24 L35 21 L36 17 Z" fill="url(#land)"/>
  <!-- 인도/동남아 -->
  <path d="M40 26 L44 27 L46 30 L44 33 L41 31 L39 28 Z" fill="url(#land)"/>
  <!-- 호주 -->
  <path d="M46 38 L50 37 L53 39 L52 43 L48 44 L46 41 Z" fill="url(#land)"/>
  <!-- 북아메리카 -->
  <path d="M10 14 L16 12 L20 14 L22 18 L20 22 L18 20 L14 18 L12 20 L10 18 Z" fill="url(#land)"/>
  <!-- 중남미 -->
  <path d="M18 24 L21 23 L22 26 L20 30 L21 34 L19 38 L17 42 L15 40 L16 36 L15 32 L16 28 Z" fill="url(#land)"/>
  <!-- 그린란드 -->
  <path d="M18 8 L22 7 L24 10 L22 12 L19 11 Z" fill="url(#land)"/>
</svg>
